<?xml version="1.0" encoding="UTF-8"?>
<!DOCTYPE svg PUBLIC "-//W3C//DTD SVG 1.1//EN" "http://www.w3.org/Graphics/SVG/1.1/DTD/svg11.dtd">
<!-- Creator: CorelDRAW X7 -->
<svg xmlns="http://www.w3.org/2000/svg" xml:space="preserve" width="717px" height="432px" version="1.1" style="shape-rendering:geometricPrecision; text-rendering:geometricPrecision; image-rendering:optimizeQuality; fill-rule:evenodd; clip-rule:evenodd"
viewBox="0 0 73588 44306"
 xmlns:xlink="http://www.w3.org/1999/xlink">
 <defs>
  <style type="text/css">
   <![CDATA[
    .fil0 {fill:#FEFEFE;fill-rule:nonzero}
   ]]>
  </style>
 </defs>
 <g id="Слой_x0020_1">
  <metadata id="CorelCorpID_0Corel-Layer"/>
  <g id="_2152722878192">
   <polygon class="fil0" points="0,38552 1346,38552 2531,42420 3812,38536 4889,38536 6170,42420 7353,38552 8668,38552 6718,44306 5623,44306 4334,40567 3044,44306 1951,44306 "/>
   <polygon class="fil0" points="10582,38552 11840,38552 11840,40812 14157,40812 14157,38552 15413,38552 15413,44264 14157,44264 14157,41971 11840,41971 11840,44264 10582,44264 "/>
   <polygon class="fil0" points="17825,38552 19081,38552 19081,44264 17825,44264 "/>
   <polygon class="fil0" points="22821,39711 21084,39711 21084,38552 25816,38552 25816,39711 24078,39711 24078,44264 22821,44264 "/>
   <polygon class="fil0" points="27762,38552 32071,38552 32071,39670 29011,39670 29011,40830 31703,40830 31703,41947 29011,41947 29011,43147 32112,43147 32112,44264 27762,44264 "/>
   <path class="fil0" d="M37478 38552l2611 0c726,0 1290,205 1665,579 319,319 490,768 490,1323 0,921 -497,1500 -1224,1770l1396 2040 -1470 0 -1241 -1827 -971 0 0 1827 -1256 0 0 -5712zm2529 2775l0 0c612,0 964,-327 964,-825 0,-537 -376,-817 -987,-817l-1250 0 0 1642 1273 0z"/>
   <path class="fil0" d="M46320 38511l1158 0 2448 5753 -1314 0 -522 -1281 -2416 0 -522 1281 -1281 0 2449 -5753zm1321 3362l0 0 -759 -1852 -758 1852 1517 0z"/>
   <path class="fil0" d="M51791 38552l2651 0c654,0 1168,179 1495,506 261,262 392,579 392,988 0,644 -343,1003 -753,1233 663,252 1070,635 1070,1419 0,1044 -849,1566 -2137,1566l-2718 0 0 -5712zm2382 2309l0 0c556,0 907,-180 907,-620 0,-376 -294,-588 -824,-588l-1241 0 0 1208 1158 0zm336 2301l0 0c553,0 889,-195 889,-635 0,-383 -286,-620 -930,-620l-1453 0 0 1255 1494 0z"/>
   <path class="fil0" d="M58666 38552l2651 0c653,0 1168,179 1495,506 261,262 392,579 392,988 0,644 -343,1003 -752,1233 662,252 1069,635 1069,1419 0,1044 -849,1566 -2137,1566l-2718 0 0 -5712zm2382 2309l0 0c556,0 907,-180 907,-620 0,-376 -295,-588 -824,-588l-1240 0 0 1208 1157 0zm336 2301l0 0c553,0 889,-195 889,-635 0,-383 -286,-620 -930,-620l-1452 0 0 1255 1493 0z"/>
   <polygon class="fil0" points="65598,38552 66854,38552 66854,44264 65598,44264 "/>
   <polygon class="fil0" points="70594,39711 68856,39711 68856,38552 73588,38552 73588,39711 71851,39711 71851,44264 70594,44264 "/>
  </g>
  <g id="_2152722881136">
   <path class="fil0" d="M37371 33841c-1013,0 -1984,-1182 -2597,-2122 -612,940 -1583,2122 -2596,2122 -3033,0 -6683,-6991 -6683,-11382 0,-1139 686,-2255 1843,-3073 -1681,-1013 -3700,-2648 -3700,-4659 0,-5071 14825,-14727 24799,-14727 2868,0 4578,794 4578,2125 0,2068 -3160,5176 -6513,7562 2532,348 6647,1257 6647,3486 0,2566 -5965,5168 -10574,5883 1477,1187 1477,2775 1477,3403 0,3859 -3606,11382 -6681,11382zm-1898 -3350l0 0c771,1365 1596,2115 1898,2115 1984,0 5445,-6449 5445,-10147 0,-1285 -322,-2566 -2661,-3233 -296,-86 -485,-375 -443,-680 43,-306 305,-533 612,-533 4775,0 11589,-3130 11589,-4840 0,-1010 -3183,-2105 -6997,-2420 -1872,1186 -5210,3038 -7773,3038 -1056,0 -1528,-634 -1528,-1263 0,-1483 2447,-3080 7820,-3080 341,0 733,14 1161,42 3976,-2587 7183,-5868 7183,-7365 0,-300 -1009,-889 -3342,-889 -9620,0 -23562,9474 -23562,13491 0,1227 1390,2696 3736,3964 1082,-450 2345,-678 3756,-678 1278,0 2298,185 3033,550 747,371 1174,940 1174,1560 0,809 -754,1628 -2198,1628 -1459,0 -3754,-670 -5792,-1682 -1134,605 -1852,1522 -1852,2390 0,4181 3523,10147 5446,10147 302,0 1127,-750 1898,-2115 -298,-609 -734,-1643 -734,-2460 0,-1336 739,-1944 1426,-1944 714,0 1438,667 1438,1944 0,817 -436,1850 -733,2460zm-718 -3170l0 0c-13,17 -177,197 -177,710 0,236 69,561 196,935 128,-374 197,-699 197,-935 0,-480 -158,-688 -216,-710zm-4508 -7854l0 0c1542,640 3111,1049 4129,1049 676,0 963,-281 963,-393 0,-73 -102,-261 -489,-452 -386,-193 -1132,-422 -2483,-422 -763,0 -1472,73 -2120,218zm6605 -6946l0 0c17,0 103,34 291,34 1337,0 3260,-664 5440,-1858 -4605,153 -5711,1534 -5731,1824z"/>
   <path class="fil0" d="M29752 13059c0,-628 510,-1137 1137,-1137 628,0 1136,509 1136,1137 0,628 -508,1138 -1136,1138 -627,0 -1137,-510 -1137,-1138z"/>
  </g>
 </g>
</svg>
