<svg width="19" height="18" viewBox="0 0 19 18" fill="none" xmlns="http://www.w3.org/2000/svg">
<path d="M0.663521 8.76596L5.21548 11.0346C5.39153 11.1214 5.59939 11.1152 5.7677 11.0167L9.81939 8.66125L7.36697 10.8345C7.2421 10.9454 7.17074 11.1036 7.17074 11.2703V16.5638C7.17074 17.1222 7.88351 17.3572 8.21779 16.9136L10.1855 14.2975L15.0515 17.0687C15.3928 17.2649 15.8302 17.0679 15.9093 16.6778L18.9442 1.55372C19.035 1.09922 18.5828 0.728489 18.1624 0.897568L0.711608 7.70339C0.24315 7.88643 0.212902 8.54181 0.663521 8.76596ZM17.5947 2.36809L14.9274 15.6594L10.3165 13.0333C10.0653 12.8898 9.74183 12.9534 9.56345 13.1892L8.33413 14.8233V11.5317L14.9662 5.65583C15.4913 5.19125 14.8879 4.36524 14.2884 4.71736L5.45436 9.85334L2.35819 8.31068L17.5947 2.36809Z" fill="#B8BFD1"/>
</svg>
