<svg xmlns="http://www.w3.org/2000/svg"><symbol id="facebook" viewBox="0 0 49.652 49.652"><path d="M24.826 0C11.137 0 0 11.137 0 24.826c0 13.688 11.137 24.826 24.826 24.826 13.688 0 24.826-11.138 24.826-24.826C49.652 11.137 38.516 0 24.826 0zM31 25.7h-4.039v14.396h-5.985V25.7h-2.845v-5.088h2.845v-3.291c0-2.357 1.12-6.04 6.04-6.04l4.435.017v4.939h-3.219c-.524 0-1.269.262-1.269 1.386v2.99h4.56L31 25.7z"/></symbol><symbol id="icon-instagram" viewBox="0 0 17 18"><path fill-rule="evenodd" clip-rule="evenodd" d="M5.326.954C4 1.014 2.85 1.338 1.922 2.262.992 3.192.671 4.345.611 5.658c-.037.819-.255 7.006.377 8.629a4.106 4.106 0 0 0 2.37 2.364c.516.2 1.105.336 1.968.376 7.217.326 9.893.148 11.021-2.74.2-.514.338-1.102.376-1.964.33-7.236-.053-8.804-1.311-10.06C14.414 1.266 13.24.59 5.326.953zm.066 14.617c-.79-.035-1.219-.167-1.505-.278A2.652 2.652 0 0 1 2.35 13.76c-.482-1.233-.322-7.09-.279-8.037.042-.928.23-1.776.885-2.431.81-.809 1.858-1.205 8.988-.883.93.042 1.78.23 2.437.883.81.808 1.213 1.864.885 8.966-.036.789-.168 1.216-.279 1.502-.733 1.88-2.42 2.14-9.594 1.811zm6.63-10.897a.972.972 0 0 0 1.945 0 .972.972 0 0 0-1.946 0zM4.505 8.99a4.157 4.157 0 0 0 4.162 4.152A4.157 4.157 0 0 0 12.83 8.99a4.156 4.156 0 0 0-4.162-4.15 4.156 4.156 0 0 0-4.162 4.15zm1.46 0a2.698 2.698 0 0 1 2.702-2.695 2.698 2.698 0 0 1 2.701 2.695 2.699 2.699 0 0 1-2.701 2.696A2.699 2.699 0 0 1 5.966 8.99z" fill="#B8BFD1"/></symbol><symbol id="icon-location" viewBox="0 0 15 15"><path fill-rule="evenodd" clip-rule="evenodd" d="M0 6.96l7.42.529L8.086 15 15 0 0 6.96z" fill="#B8BFD1"/></symbol><symbol id="icon-telegram" viewBox="0 0 19 18"><path d="M.664 8.766l4.551 2.269c.177.086.384.08.553-.018L9.819 8.66l-2.452 2.174a.582.582 0 0 0-.196.435v5.294c0 .558.713.793 1.047.35l1.967-2.617 4.867 2.772c.34.196.778-.001.857-.391l3.035-15.124a.582.582 0 0 0-.782-.656L.712 7.703a.582.582 0 0 0-.048 1.063zm16.93-6.398L14.928 15.66l-4.61-2.626a.583.583 0 0 0-.754.156l-1.229 1.634v-3.291l6.632-5.876c.525-.465-.078-1.29-.678-.939L5.454 9.853 2.358 8.311l15.237-5.943z" fill="#B8BFD1"/></symbol><symbol id="icon-whatsapp" viewBox="0 0 18 18"><path fill-rule="evenodd" clip-rule="evenodd" d="M14.845 3.222A8.02 8.02 0 0 0 9.135.854c-4.45 0-8.071 3.622-8.073 8.072 0 1.423.371 2.812 1.078 4.036L.994 17.145l4.28-1.122a8.063 8.063 0 0 0 3.858.983h.003c4.45 0 8.07-3.622 8.073-8.073a8.023 8.023 0 0 0-2.363-5.711zm-5.71 12.42h-.003a6.702 6.702 0 0 1-3.415-.935l-.245-.146-2.54.667.678-2.476-.16-.254a6.693 6.693 0 0 1-1.025-3.571 6.72 6.72 0 0 1 6.713-6.71c1.792.001 3.476.7 4.743 1.968a6.67 6.67 0 0 1 1.964 4.747c-.002 3.7-3.012 6.71-6.71 6.71zm3.68-5.025c-.201-.101-1.193-.589-1.378-.656-.185-.068-.32-.101-.454.1-.134.203-.52.657-.639.791-.117.135-.235.152-.437.051-.201-.1-.851-.314-1.622-1.001-.6-.535-1.004-1.196-1.122-1.397-.117-.202 0-.301.089-.412.218-.271.437-.556.504-.69.067-.135.034-.253-.017-.353-.05-.101-.454-1.094-.622-1.498-.164-.393-.33-.34-.454-.346a8.057 8.057 0 0 0-.386-.007.74.74 0 0 0-.538.252c-.185.202-.706.69-.706 1.683 0 .993.723 1.952.824 2.086.1.135 1.422 2.172 3.445 3.046.482.208.857.332 1.15.425.483.153.923.132 1.27.08.388-.058 1.194-.488 1.362-.96.168-.47.168-.874.118-.959-.05-.084-.185-.134-.387-.235z" fill="#B8BFD1"/></symbol><symbol id="instagram" viewBox="0 0 89.758 89.758"><path d="M58.255 23.88H31.503c-4.27 0-7.744 3.474-7.744 7.744v26.752c0 4.27 3.474 7.745 7.744 7.745h26.752c4.27 0 7.745-3.474 7.745-7.745V31.624c0-4.27-3.474-7.744-7.745-7.744zM44.879 58.906c-7.667 0-13.905-6.238-13.905-13.906 0-7.667 6.238-13.905 13.905-13.905 7.668 0 13.906 6.238 13.906 13.905 0 7.667-6.239 13.906-13.906 13.906zM59.232 33.97a3.294 3.294 0 0 1-3.291-3.29 3.294 3.294 0 0 1 3.291-3.29 3.294 3.294 0 0 1 3.29 3.29 3.294 3.294 0 0 1-3.29 3.29z"/><path d="M44.879 36.971c-4.426 0-8.03 3.602-8.03 8.028 0 4.428 3.604 8.031 8.03 8.031 4.428 0 8.029-3.603 8.029-8.031 0-4.425-3.602-8.028-8.029-8.028z"/><path d="M44.879 0C20.094 0 0 20.094 0 44.879c0 24.785 20.094 44.879 44.879 44.879 24.785 0 44.879-20.094 44.879-44.879C89.758 20.094 69.664 0 44.879 0zm26.996 58.376c0 7.511-6.109 13.62-13.62 13.62H31.503c-7.51 0-13.62-6.109-13.62-13.62V31.624c0-7.51 6.11-13.62 13.62-13.62h26.752c7.511 0 13.62 6.11 13.62 13.62v26.752z"/></symbol><symbol id="mail" viewBox="0 0 31.012 31.012"><path d="M28.512 26.529H2.5a2.503 2.503 0 0 1-2.5-2.5V6.982c0-1.379 1.122-2.5 2.5-2.5h26.012c1.378 0 2.5 1.121 2.5 2.5v17.047c0 1.379-1.122 2.5-2.5 2.5zM2.5 5.482c-.827 0-1.5.673-1.5 1.5v17.047c0 .827.673 1.5 1.5 1.5h26.012c.827 0 1.5-.673 1.5-1.5V6.982c0-.827-.673-1.5-1.5-1.5H2.5z"/><path d="M15.506 18.018c-.665 0-1.33-.221-1.836-.662L.891 6.219a.5.5 0 1 1 .658-.754l12.778 11.137c.64.557 1.72.556 2.358 0L29.46 5.466a.497.497 0 0 1 .706.049.5.5 0 0 1-.048.705L17.342 17.355c-.506.442-1.171.663-1.836.663z"/></symbol><symbol id="oclock" viewBox="0 0 472.912 472.912"><path d="M236.477.016C106.078.016 0 106.07 0 236.444c0 130.39 106.078 236.452 236.477 236.452 130.374 0 236.436-106.07 236.436-236.452C472.912 106.07 366.851.016 236.477.016zm0 438c-111.134 0-201.564-90.43-201.564-201.564 0-111.126 90.43-201.54 201.564-201.54 111.126 0 201.54 90.422 201.54 201.54-.001 111.134-90.415 201.564-201.54 201.564z" fill="#010002"/><path d="M236.452 61.354c-9.616 0-17.444 7.828-17.444 17.444v140.21H94.771c-9.624 0-17.444 7.836-17.444 17.468 0 9.616 7.828 17.444 17.444 17.444h141.681c9.624 0 17.444-7.828 17.444-17.444V78.798c0-9.624-7.82-17.444-17.444-17.444z" fill="#010002"/></symbol><symbol id="phone" viewBox="0 0 578.106 578.106"><path d="M577.83 456.128c1.225 9.385-1.635 17.545-8.568 24.48l-81.396 80.781c-3.672 4.08-8.465 7.551-14.381 10.404-5.916 2.857-11.729 4.693-17.439 5.508-.408 0-1.635.105-3.676.309-2.037.203-4.689.307-7.953.307-7.754 0-20.301-1.326-37.641-3.979s-38.555-9.182-63.645-19.584c-25.096-10.404-53.553-26.012-85.376-46.818-31.823-20.805-65.688-49.367-101.592-85.68-28.56-28.152-52.224-55.08-70.992-80.783-18.768-25.705-33.864-49.471-45.288-71.299-11.425-21.828-19.993-41.616-25.705-59.364S4.59 177.362 2.55 164.51-.306 141.56.102 134.216c.408-7.344.612-11.424.612-12.24.816-5.712 2.652-11.526 5.508-17.442s6.324-10.71 10.404-14.382L98.022 8.756c5.712-5.712 12.24-8.568 19.584-8.568 5.304 0 9.996 1.53 14.076 4.59s7.548 6.834 10.404 11.322l65.484 124.236c3.672 6.528 4.692 13.668 3.06 21.42-1.632 7.752-5.1 14.28-10.404 19.584l-29.988 29.988c-.816.816-1.53 2.142-2.142 3.978s-.918 3.366-.918 4.59c1.632 8.568 5.304 18.36 11.016 29.376 4.896 9.792 12.444 21.726 22.644 35.802s24.684 30.293 43.452 48.653c18.36 18.77 34.68 33.354 48.96 43.76 14.277 10.4 26.215 18.053 35.803 22.949 9.588 4.896 16.932 7.854 22.031 8.871l7.648 1.531c.816 0 2.145-.307 3.979-.918 1.836-.613 3.162-1.326 3.979-2.143l34.883-35.496c7.348-6.527 15.912-9.791 25.705-9.791 6.938 0 12.443 1.223 16.523 3.672h.611l118.115 69.768c8.571 5.308 13.67 12.038 15.303 20.198z" fill="#010002"/></symbol><symbol id="vk" viewBox="0 0 97.75 97.75"><path d="M48.875 0C21.883 0 0 21.882 0 48.875S21.883 97.75 48.875 97.75 97.75 75.868 97.75 48.875 75.867 0 48.875 0zm24.792 54.161c2.278 2.225 4.688 4.319 6.733 6.774.906 1.086 1.76 2.209 2.41 3.472.928 1.801.09 3.776-1.522 3.883l-10.013-.002c-2.586.214-4.644-.829-6.379-2.597-1.385-1.409-2.67-2.914-4.004-4.371-.545-.598-1.119-1.161-1.803-1.604-1.365-.888-2.551-.616-3.333.81-.797 1.451-.979 3.059-1.055 4.674-.109 2.361-.821 2.978-3.19 3.089-5.062.237-9.865-.531-14.329-3.083-3.938-2.251-6.986-5.428-9.642-9.025-5.172-7.012-9.133-14.708-12.692-22.625-.801-1.783-.215-2.737 1.752-2.774 3.268-.063 6.536-.055 9.804-.003 1.33.021 2.21.782 2.721 2.037 1.766 4.345 3.931 8.479 6.644 12.313.723 1.021 1.461 2.039 2.512 2.76 1.16.796 2.044.533 2.591-.762.35-.823.501-1.703.577-2.585.26-3.021.291-6.041-.159-9.05-.28-1.883-1.339-3.099-3.216-3.455-.956-.181-.816-.535-.351-1.081.807-.944 1.563-1.528 3.074-1.528l11.313-.002c1.783.35 2.183 1.15 2.425 2.946l.01 12.572c-.021.695.349 2.755 1.597 3.21 1 .33 1.66-.472 2.258-1.105 2.713-2.879 4.646-6.277 6.377-9.794.764-1.551 1.423-3.156 2.063-4.764.476-1.189 1.216-1.774 2.558-1.754l10.894.013c.321 0 .647.003.965.058 1.836.314 2.339 1.104 1.771 2.895-.894 2.814-2.631 5.158-4.329 7.508-1.82 2.516-3.761 4.944-5.563 7.471-1.656 2.31-1.525 3.473.531 5.479z"/></symbol></svg>