<svg width="17" height="18" viewBox="0 0 17 18" fill="none" xmlns="http://www.w3.org/2000/svg">
<path fill-rule="evenodd" clip-rule="evenodd" d="M5.3258 0.95434C3.9998 1.01417 2.8505 1.33836 1.92246 2.26248C0.991182 3.19145 0.671018 4.34531 0.61104 5.65752C0.573756 6.47653 0.355741 12.664 0.987941 14.2867C1.41427 15.3814 2.25394 16.2231 3.35867 16.6508C3.87416 16.8513 4.4626 16.9871 5.3258 17.0267C12.5434 17.3533 15.2189 17.1755 16.3471 14.2867C16.5473 13.7725 16.6851 13.1846 16.7232 12.3235C17.0531 5.08737 16.6697 3.5189 15.4118 2.26248C14.4141 1.26721 13.2405 0.589704 5.3258 0.95434ZM5.39225 15.5714C4.602 15.5358 4.17324 15.4041 3.88713 15.2934C3.16739 15.0136 2.62679 14.4752 2.34878 13.7597C1.86733 12.5267 2.02701 6.67071 2.06997 5.72314C2.11212 4.79497 2.30015 3.94669 2.95505 3.29181C3.76556 2.4833 4.81273 2.08705 11.9428 2.40884C12.8733 2.45088 13.7235 2.63854 14.38 3.29181C15.1905 4.10031 15.5926 5.15554 15.2651 12.2583C15.2294 13.0466 15.0973 13.4743 14.9863 13.7597C14.2528 15.6395 12.5653 15.9004 5.39225 15.5714ZM12.0214 4.67432C12.0214 5.20956 12.4567 5.64479 12.9941 5.64479C13.5314 5.64479 13.9675 5.20956 13.9675 4.67432C13.9675 4.1391 13.5314 3.70426 12.9941 3.70426C12.4567 3.70426 12.0214 4.1391 12.0214 4.67432ZM4.50555 8.99011C4.50555 11.283 6.36893 13.142 8.66754 13.142C10.9662 13.142 12.8295 11.283 12.8295 8.99011C12.8295 6.69719 10.9662 4.83938 8.66754 4.83938C6.36893 4.83938 4.50555 6.69719 4.50555 8.99011ZM5.9661 8.99011C5.9661 7.50246 7.17539 6.29548 8.66754 6.29548C10.1597 6.29548 11.369 7.50246 11.369 8.99011C11.369 10.4786 10.1597 11.6859 8.66754 11.6859C7.17539 11.6859 5.9661 10.4786 5.9661 8.99011Z" fill="#B8BFD1"/>
</svg>
