<svg width="18" height="18" viewBox="0 0 18 18" fill="none" xmlns="http://www.w3.org/2000/svg">
<path fill-rule="evenodd" clip-rule="evenodd" d="M14.8453 3.22188C13.3212 1.69597 11.2943 0.855265 9.13486 0.85437C4.68522 0.85437 1.06386 4.47563 1.06207 8.92646C1.06147 10.3493 1.43315 11.7381 2.13963 12.9624L0.994354 17.1455L5.27387 16.0229C6.45305 16.6662 7.78058 17.0051 9.13158 17.0055H9.13496C13.5841 17.0055 17.2059 13.384 17.2076 8.93293C17.2085 6.77582 16.3695 4.74768 14.8453 3.22188ZM9.13486 15.6422H9.13208C7.92814 15.6417 6.74737 15.3181 5.71704 14.7069L5.47214 14.5614L2.93261 15.2276L3.61045 12.7517L3.45086 12.4978C2.77918 11.4295 2.4245 10.1947 2.4251 8.92696C2.42649 5.22755 5.43654 2.2178 9.13755 2.2178C10.9297 2.2184 12.6144 2.91721 13.8812 4.18548C15.148 5.45376 15.8452 7.13955 15.8446 8.93243C15.843 12.6321 12.8332 15.6422 9.13486 15.6422ZM12.8153 10.6169C12.6136 10.5159 11.6219 10.0281 11.4369 9.96067C11.2522 9.89335 11.1176 9.85984 10.9832 10.0617C10.8487 10.2635 10.4622 10.718 10.3445 10.8525C10.2267 10.9871 10.1092 11.004 9.90746 10.903C9.70571 10.8021 9.05581 10.589 8.28531 9.9018C7.68572 9.36695 7.28093 8.70642 7.1632 8.50457C7.04567 8.30252 7.16221 8.20388 7.2517 8.09291C7.47005 7.82176 7.68871 7.53748 7.75592 7.40295C7.82324 7.26831 7.78953 7.15049 7.73902 7.04956C7.68871 6.94864 7.2853 5.95579 7.11726 5.5518C6.9534 5.15864 6.78724 5.21174 6.66335 5.20557C6.54582 5.1997 6.41129 5.19851 6.27675 5.19851C6.14232 5.19851 5.92376 5.24892 5.73882 5.45097C5.55397 5.65292 5.03294 6.14084 5.03294 7.13368C5.03294 8.12652 5.75572 9.08566 5.85655 9.22029C5.95737 9.35492 7.27894 11.3923 9.30231 12.2659C9.78357 12.4739 10.1592 12.5979 10.4523 12.6909C10.9355 12.8444 11.3751 12.8228 11.7227 12.7709C12.1103 12.7129 12.916 12.2828 13.0843 11.8117C13.2523 11.3405 13.2523 10.9367 13.2018 10.8525C13.1515 10.7684 13.0169 10.718 12.8153 10.6169Z" fill="#B8BFD1"/>
</svg>
