<?xml version="1.0" encoding="UTF-8"?>
<!DOCTYPE svg PUBLIC "-//W3C//DTD SVG 1.1//EN" "http://www.w3.org/Graphics/SVG/1.1/DTD/svg11.dtd">
<!-- Creator: CorelDRAW X7 -->
<svg xmlns="http://www.w3.org/2000/svg" xml:space="preserve" width="108px" height="75px" version="1.1" style="shape-rendering:geometricPrecision; text-rendering:geometricPrecision; image-rendering:optimizeQuality; fill-rule:evenodd; clip-rule:evenodd"
viewBox="0 0 73588 50976"
 xmlns:xlink="http://www.w3.org/1999/xlink">
 <defs>
  <style type="text/css">
   <![CDATA[
    .fil0 {fill:#FEFEFE;fill-rule:nonzero}
   ]]>
  </style>
 </defs>
 <g id="Слой_x0020_1">
  <metadata id="CorelCorpID_0Corel-Layer"/>
  <g id="_2152722897488">
   <path class="fil0" d="M7747 50362c-318,0 -582,-108 -793,-323 -212,-216 -317,-478 -317,-787l0 -8c0,-309 106,-574 319,-793 213,-220 478,-329 795,-329 347,0 633,123 858,370l-305 329c-171,-179 -357,-268 -557,-268 -177,0 -324,66 -442,199 -118,133 -176,294 -176,484l0 8c0,195 60,359 180,492 121,132 275,199 462,199 198,0 383,-89 557,-268l297 292c-117,130 -244,230 -380,299 -137,69 -303,104 -498,104zm2000 -49l0 -1724 -691 0 0 -423 1878 0 0 423 -691 0 0 1724 -496 0zm2249 663c-179,0 -349,-44 -509,-130l167 -366c100,54 197,81 289,81 70,0 129,-18 175,-55 46,-36 89,-101 130,-193l-895 -2147 525 0 610 1594 557 -1594 512 0 -854 2208c-87,220 -183,375 -289,466 -105,90 -245,136 -418,136zm1968 -147l0 -939 231 0c160,-320 240,-806 240,-1459l0 -265 1663 0 0 1724 305 0 -65 939 -411 0 0 -516 -1504 0 -49 516 -410 0zm735 -939l907 0 0 -1301 -707 0 0 285c0,398 -67,737 -200,1016zm2347 423l0 -2147 479 0 0 1440c450,-640 789,-1120 1017,-1440l463 0 0 2147 -475 0 0 -1431 -1021 1431 -463 0zm2614 0l594 -805c-152,-46 -274,-124 -364,-234 -91,-110 -137,-246 -137,-408 0,-212 75,-381 224,-509 149,-127 356,-191 622,-191l1078 0 0 2147 -492 0 0 -724 -440 0 -508 724 -577 0zm1008 -1094l517 0 0 -654 -521 0c-130,0 -232,29 -307,87 -74,58 -112,138 -112,238 0,103 39,184 116,242 77,58 180,87 307,87zm3831 1143c-325,0 -596,-109 -813,-325 -217,-217 -326,-482 -326,-793 0,-312 110,-577 330,-795 219,-218 492,-327 817,-327 325,0 597,108 815,325 218,217 327,482 327,797 0,309 -109,572 -329,790 -219,219 -493,328 -821,328zm8 -427c195,0 352,-67 472,-199 119,-133 178,-297 178,-492 0,-193 -62,-356 -187,-490 -124,-134 -281,-201 -471,-201 -193,0 -348,66 -468,199 -119,133 -179,297 -179,492 0,189 63,352 187,488 125,135 281,203 468,203zm2334 378l0 -1724 -691 0 0 -423 1878 0 0 423 -691 0 0 1724 -496 0zm2858 -378c182,0 330,-63 446,-189 115,-126 172,-283 172,-470 0,-184 -60,-341 -181,-469 -120,-129 -269,-193 -445,-193 -179,0 -326,63 -441,191 -115,127 -173,284 -173,471 0,185 60,340 179,468 119,127 267,191 443,191zm-8 427c-347,0 -618,-110 -813,-329 -195,-220 -293,-528 -293,-923 0,-128 4,-240 10,-336 7,-96 20,-200 39,-313 19,-112 48,-211 87,-295 40,-84 90,-164 151,-242 61,-77 139,-142 236,-195 96,-53 208,-93 335,-120l1171 -244 81 395 -1171 256c-195,41 -334,113 -418,217 -84,105 -133,235 -147,393 65,-109 168,-203 307,-283 140,-80 313,-120 519,-120 279,0 519,101 721,303 202,202 303,449 303,742 0,301 -106,558 -319,773 -213,214 -479,321 -799,321zm2834 0c-314,0 -577,-104 -787,-313 -210,-209 -315,-479 -315,-809 0,-312 99,-576 297,-793 198,-217 449,-325 752,-325 326,0 578,110 759,331 180,221 270,495 270,823 0,60 -3,106 -8,139l-1578 0c27,170 96,304 208,400 111,96 248,144 410,144 212,0 405,-85 582,-256l288 256c-222,269 -515,403 -878,403zm-614 -1273l1102 0c-16,-165 -72,-301 -167,-406 -95,-106 -221,-159 -378,-159 -149,0 -274,52 -374,157 -100,104 -161,240 -183,408zm2302 1248c-79,0 -175,-9 -289,-28l36 -403c44,11 91,17 143,17 57,0 104,-8 140,-25 37,-16 75,-57 114,-124 39,-66 70,-160 91,-282 22,-122 40,-294 53,-515 14,-220 21,-491 21,-811l1622 0 0 2147 -492 0 0 -1724 -671 0c0,306 -12,567 -37,781 -24,214 -56,383 -95,508 -39,125 -94,222 -163,291 -69,69 -139,114 -209,136 -71,22 -159,32 -264,32zm2781 -24l0 -2147 479 0 0 1440c450,-640 789,-1120 1017,-1440l463 0 0 2147 -475 0 0 -1431 -1021 1431 -463 0zm2809 0l0 -2147 1102 0c214,0 386,48 514,145 129,96 193,227 193,392 0,225 -115,389 -345,492 295,84 443,263 443,537 0,181 -71,324 -213,427 -143,103 -336,154 -580,154l-1114 0zm484 -390l557 0c117,0 207,-25 270,-76 64,-50 96,-117 96,-201 0,-81 -33,-145 -100,-191 -66,-46 -163,-69 -290,-69l-533 0 0 537zm0 -870l504 0c101,0 179,-25 236,-74 57,-48 85,-112 85,-191 0,-73 -25,-132 -77,-177 -51,-44 -130,-67 -236,-67l-512 0 0 509zm3948 1260l-488 0 0 -264c-173,206 -405,309 -695,309 -214,0 -395,-59 -543,-177 -148,-118 -222,-283 -222,-494 0,-231 80,-405 240,-525 160,-119 370,-178 631,-178 208,0 406,29 593,89l0 -41c0,-149 -45,-263 -136,-341 -91,-79 -222,-118 -392,-118 -196,0 -400,45 -614,134l-135 -394c266,-120 539,-179 818,-179 311,0 547,78 705,236 159,157 238,380 238,670l0 1273zm-476 -776l0 -122c-146,-57 -310,-86 -492,-86 -154,0 -275,30 -362,90 -86,59 -130,143 -130,252 0,97 40,175 118,231 79,57 178,86 297,86 165,0 302,-42 409,-126 107,-84 160,-193 160,-325zm1293 776l0 -2147 492 0 0 870 948 0 0 -870 492 0 0 2147 -492 0 0 -866 -948 0 0 866 -492 0zm2782 0l0 -2147 479 0 0 1440c450,-640 789,-1120 1017,-1440l463 0 0 2147 -475 0 0 -1431 -1021 1431 -463 0zm2614 0l594 -805c-152,-46 -274,-124 -364,-234 -91,-110 -137,-246 -137,-408 0,-212 75,-381 224,-509 149,-127 356,-191 622,-191l1078 0 0 2147 -492 0 0 -724 -440 0 -508 724 -577 0zm1008 -1094l517 0 0 -654 -521 0c-130,0 -232,29 -307,87 -74,58 -112,138 -112,238 0,103 39,184 116,242 77,58 180,87 307,87zm3542 1143c-369,0 -682,-110 -939,-329l232 -326c200,171 425,256 675,256 113,0 210,-27 288,-83 79,-56 118,-127 118,-213 0,-82 -38,-147 -114,-196 -76,-48 -183,-73 -321,-73l-264 0 0 -353 264 0c114,0 205,-27 275,-80 69,-53 103,-120 103,-201 0,-73 -33,-132 -99,-177 -67,-45 -152,-67 -254,-67 -239,0 -442,73 -610,220l-220 -309c236,-206 527,-309 874,-309 236,0 428,54 578,162 149,109 223,247 223,415 0,228 -112,390 -337,488 260,92 390,265 390,520 0,185 -80,340 -240,466 -160,126 -367,189 -622,189zm2045 614c-179,0 -348,-44 -508,-130l167 -366c100,54 196,81 288,81 71,0 129,-18 175,-55 46,-36 90,-101 130,-193l-894 -2147 524 0 610 1594 557 -1594 513 0 -854 2208c-87,220 -183,375 -289,466 -106,90 -245,136 -419,136zm3265 -1041c182,0 330,-63 445,-189 116,-126 173,-283 173,-470 0,-184 -60,-341 -181,-469 -120,-129 -269,-193 -445,-193 -179,0 -326,63 -441,191 -115,127 -173,284 -173,471 0,185 60,340 179,468 119,127 267,191 443,191zm-8 427c-347,0 -618,-110 -813,-329 -195,-220 -293,-528 -293,-923 0,-128 3,-240 10,-336 7,-96 20,-200 39,-313 19,-112 48,-211 87,-295 40,-84 90,-164 151,-242 61,-77 139,-142 236,-195 96,-53 208,-93 335,-120l1171 -244 81 395 -1171 256c-195,41 -334,113 -418,217 -84,105 -133,235 -147,393 65,-109 168,-203 307,-283 140,-80 313,-120 519,-120 279,0 519,101 721,303 202,202 303,449 303,742 0,301 -106,558 -319,773 -213,214 -479,321 -799,321zm2871 0c-326,0 -597,-109 -814,-325 -216,-217 -325,-482 -325,-793 0,-312 110,-577 329,-795 220,-218 492,-327 818,-327 325,0 597,108 815,325 218,217 327,482 327,797 0,309 -110,572 -329,790 -220,219 -494,328 -821,328zm8 -427c195,0 352,-67 471,-199 120,-133 179,-297 179,-492 0,-193 -62,-356 -187,-490 -124,-134 -282,-201 -471,-201 -193,0 -349,66 -468,199 -119,133 -179,297 -179,492 0,189 62,352 187,488 125,135 281,203 468,203zm1874 378l0 -2147 1102 0c214,0 386,48 514,145 129,96 193,227 193,392 0,225 -115,389 -345,492 295,84 443,263 443,537 0,181 -71,324 -213,427 -143,103 -336,154 -580,154l-1114 0zm484 -390l557 0c117,0 207,-25 270,-76 64,-50 96,-117 96,-201 0,-81 -33,-145 -100,-191 -66,-46 -163,-69 -290,-69l-533 0 0 537zm0 -870l504 0c100,0 179,-25 236,-74 57,-48 85,-112 85,-191 0,-73 -25,-132 -77,-177 -51,-44 -130,-67 -236,-67l-512 0 0 509z"/>
   <g>
    <polygon class="fil0" points="0,38552 1346,38552 2531,42420 3812,38536 4889,38536 6170,42420 7353,38552 8668,38552 6718,44306 5623,44306 4334,40567 3044,44306 1951,44306 "/>
    <polygon class="fil0" points="10582,38552 11840,38552 11840,40812 14157,40812 14157,38552 15413,38552 15413,44264 14157,44264 14157,41971 11840,41971 11840,44264 10582,44264 "/>
    <polygon class="fil0" points="17825,38552 19081,38552 19081,44264 17825,44264 "/>
    <polygon class="fil0" points="22821,39711 21084,39711 21084,38552 25816,38552 25816,39711 24078,39711 24078,44264 22821,44264 "/>
    <polygon class="fil0" points="27762,38552 32071,38552 32071,39670 29011,39670 29011,40830 31703,40830 31703,41947 29011,41947 29011,43147 32112,43147 32112,44264 27762,44264 "/>
    <path class="fil0" d="M37478 38552l2611 0c726,0 1290,205 1665,579 319,319 490,768 490,1323 0,921 -497,1500 -1224,1770l1396 2040 -1470 0 -1241 -1827 -971 0 0 1827 -1256 0 0 -5712zm2529 2775l0 0c612,0 964,-327 964,-825 0,-537 -376,-817 -987,-817l-1250 0 0 1642 1273 0z"/>
    <path class="fil0" d="M46320 38511l1158 0 2448 5753 -1314 0 -522 -1281 -2416 0 -522 1281 -1281 0 2449 -5753zm1321 3362l0 0 -759 -1852 -758 1852 1517 0z"/>
    <path class="fil0" d="M51791 38552l2651 0c654,0 1168,179 1495,506 261,262 392,579 392,988 0,644 -343,1003 -753,1233 663,252 1070,635 1070,1419 0,1044 -849,1566 -2137,1566l-2718 0 0 -5712zm2382 2309l0 0c556,0 907,-180 907,-620 0,-376 -294,-588 -824,-588l-1241 0 0 1208 1158 0zm336 2301l0 0c553,0 889,-195 889,-635 0,-383 -286,-620 -930,-620l-1453 0 0 1255 1494 0z"/>
    <path class="fil0" d="M58666 38552l2651 0c653,0 1168,179 1495,506 261,262 392,579 392,988 0,644 -343,1003 -752,1233 662,252 1069,635 1069,1419 0,1044 -849,1566 -2137,1566l-2718 0 0 -5712zm2382 2309l0 0c556,0 907,-180 907,-620 0,-376 -295,-588 -824,-588l-1240 0 0 1208 1157 0zm336 2301l0 0c553,0 889,-195 889,-635 0,-383 -286,-620 -930,-620l-1452 0 0 1255 1493 0z"/>
    <polygon class="fil0" points="65598,38552 66854,38552 66854,44264 65598,44264 "/>
    <polygon class="fil0" points="70594,39711 68856,39711 68856,38552 73588,38552 73588,39711 71851,39711 71851,44264 70594,44264 "/>
   </g>
   <g>
    <path class="fil0" d="M37371 33841c-1013,0 -1984,-1182 -2597,-2122 -612,940 -1583,2122 -2596,2122 -3033,0 -6683,-6991 -6683,-11382 0,-1139 686,-2255 1843,-3073 -1681,-1013 -3700,-2648 -3700,-4659 0,-5071 14825,-14727 24799,-14727 2868,0 4578,794 4578,2125 0,2068 -3160,5176 -6513,7562 2532,348 6647,1257 6647,3486 0,2566 -5965,5168 -10574,5883 1477,1187 1477,2775 1477,3403 0,3859 -3606,11382 -6681,11382zm-1898 -3350l0 0c771,1365 1596,2115 1898,2115 1984,0 5445,-6449 5445,-10147 0,-1285 -322,-2566 -2661,-3233 -296,-86 -485,-375 -443,-680 43,-306 305,-533 612,-533 4775,0 11589,-3130 11589,-4840 0,-1010 -3183,-2105 -6997,-2420 -1872,1186 -5210,3038 -7773,3038 -1056,0 -1528,-634 -1528,-1263 0,-1483 2447,-3080 7820,-3080 341,0 733,14 1161,42 3976,-2587 7183,-5868 7183,-7365 0,-300 -1009,-889 -3342,-889 -9620,0 -23562,9474 -23562,13491 0,1227 1390,2696 3736,3964 1082,-450 2345,-678 3756,-678 1278,0 2298,185 3033,550 747,371 1174,940 1174,1560 0,809 -754,1628 -2198,1628 -1459,0 -3754,-670 -5792,-1682 -1134,605 -1852,1522 -1852,2390 0,4181 3523,10147 5446,10147 302,0 1127,-750 1898,-2115 -298,-609 -734,-1643 -734,-2460 0,-1336 739,-1944 1426,-1944 714,0 1438,667 1438,1944 0,817 -436,1850 -733,2460zm-718 -3170l0 0c-13,17 -177,197 -177,710 0,236 69,561 196,935 128,-374 197,-699 197,-935 0,-480 -158,-688 -216,-710zm-4508 -7854l0 0c1542,640 3111,1049 4129,1049 676,0 963,-281 963,-393 0,-73 -102,-261 -489,-452 -386,-193 -1132,-422 -2483,-422 -763,0 -1472,73 -2120,218zm6605 -6946l0 0c17,0 103,34 291,34 1337,0 3260,-664 5440,-1858 -4605,153 -5711,1534 -5731,1824z"/>
    <path class="fil0" d="M29752 13059c0,-628 510,-1137 1137,-1137 628,0 1136,509 1136,1137 0,628 -508,1138 -1136,1138 -627,0 -1137,-510 -1137,-1138z"/>
   </g>
  </g>
 </g>
</svg>
