<?xml version="1.0" encoding="UTF-8"?>
<!DOCTYPE svg PUBLIC "-//W3C//DTD SVG 1.1//EN" "http://www.w3.org/Graphics/SVG/1.1/DTD/svg11.dtd">
<!-- Creator: CorelDRAW X7 -->
<svg xmlns="http://www.w3.org/2000/svg" xml:space="preserve" width="217px" height="297px" version="1.1" style="shape-rendering:geometricPrecision; text-rendering:geometricPrecision; image-rendering:optimizeQuality; fill-rule:evenodd; clip-rule:evenodd"
viewBox="0 0 199 272"
 xmlns:xlink="http://www.w3.org/1999/xlink">
 <defs>
  <style type="text/css">
   <![CDATA[
    .fil0 {fill:#FEFEFE;fill-rule:nonzero}
   ]]>
  </style>
 </defs>
 <g id="Слой_x0020_1">
  <metadata id="CorelCorpID_0Corel-Layer"/>
  <path class="fil0" d="M10 186c-1,20 2,41 9,56 6,11 15,18 29,20l85 0c9,0 17,-1 23,-2 6,-1 10,-2 12,-3 9,-3 14,-7 17,-11 3,-4 4,-9 4,-16l0 -33 0 0 0 -4c-1,-31 -6,-78 -21,-117 -14,-37 -37,-67 -75,-66l-1 0c-76,2 -79,102 -82,169l0 7zm0 60c-8,-16 -11,-38 -10,-60l0 -8c3,-70 6,-175 92,-178l1 0c43,-1 69,32 85,73 15,40 20,87 21,119l0 4 0 1 0 33 0 0 0 1c0,8 -2,15 -6,21 -4,5 -11,10 -21,14 -3,2 -8,3 -15,4 -6,1 -15,2 -23,2 -1,0 -1,0 -1,0l-86 0 0 0c-18,-2 -29,-12 -37,-26z"/>
 </g>
</svg>
