<?xml version="1.0" encoding="UTF-8"?>
<!DOCTYPE svg PUBLIC "-//W3C//DTD SVG 1.1//EN" "http://www.w3.org/Graphics/SVG/1.1/DTD/svg11.dtd">
<!-- Creator: CorelDRAW X7 -->
<svg xmlns="http://www.w3.org/2000/svg" xml:space="preserve" width="217px" height="297px" version="1.1" style="shape-rendering:geometricPrecision; text-rendering:geometricPrecision; image-rendering:optimizeQuality; fill-rule:evenodd; clip-rule:evenodd"
viewBox="0 0 208 284"
 xmlns:xlink="http://www.w3.org/1999/xlink">
 <defs>
  <style type="text/css">
   <![CDATA[
    .fil0 {fill:#FEFEFE;fill-rule:nonzero}
   ]]>
  </style>
 </defs>
 <g id="Слой_x0020_1">
  <metadata id="CorelCorpID_0Corel-Layer"/>
  <path class="fil0" d="M11 257c-9,-17 -12,-41 -11,-63l0 -8c3,-73 6,-183 96,-186l1 0c45,-1 72,33 88,76 16,41 22,91 23,124l0 5 0 0 0 35 0 0 0 0c-1,9 -2,16 -7,22 -4,6 -11,11 -21,16 -4,1 -9,3 -16,3 -7,1 -15,2 -25,3 0,0 0,0 0,0l-90 0 0 0c-19,-2 -31,-13 -38,-27z"/>
 </g>
</svg>
